<?xml version="1.0" encoding="UTF-8" standalone="no"?>
<!-- Generator: Adobe Illustrator 18.1.0, SVG Export Plug-In . SVG Version: 6.00 Build 0)  -->

<svg
   xmlns:dc="http://purl.org/dc/elements/1.1/"
   xmlns:cc="http://creativecommons.org/ns#"
   xmlns:rdf="http://www.w3.org/1999/02/22-rdf-syntax-ns#"
   xmlns:svg="http://www.w3.org/2000/svg"
   xmlns="http://www.w3.org/2000/svg"
   xmlns:sodipodi="http://sodipodi.sourceforge.net/DTD/sodipodi-0.dtd"
   xmlns:inkscape="http://www.inkscape.org/namespaces/inkscape"
   version="1.1"
   id="Layer_2"
   x="0px"
   y="0px"
   viewBox="0 0 24 24"
   enable-background="new 0 0 72 72"
   xml:space="preserve"
   inkscape:version="0.48.4 r9939"
   width="100%"
   height="100%"
   sodipodi:docname="Quizes.svg"><metadata
   id="metadata31"><rdf:RDF><cc:Work
       rdf:about=""><dc:format>image/svg+xml</dc:format><dc:type
         rdf:resource="http://purl.org/dc/dcmitype/StillImage" /><dc:title></dc:title></cc:Work></rdf:RDF></metadata><defs
   id="defs29" /><sodipodi:namedview
   pagecolor="#ffffff"
   bordercolor="#666666"
   borderopacity="1"
   objecttolerance="10"
   gridtolerance="10"
   guidetolerance="10"
   inkscape:pageopacity="0"
   inkscape:pageshadow="2"
   inkscape:window-width="1366"
   inkscape:window-height="706"
   id="namedview27"
   showgrid="false"
   inkscape:zoom="18.541911"
   inkscape:cx="14.199319"
   inkscape:cy="12.393013"
   inkscape:window-x="-8"
   inkscape:window-y="-8"
   inkscape:window-maximized="1"
   inkscape:current-layer="Layer_2" />
<g
   id="g3"
   transform="matrix(0.32454361,0,0,0.32454361,-0.2515213,0.217039)">
	<path
   d="m 13.1,70.1 c 0,-22.7 0,-45.3 0,-68 16.4,0 32.8,0 49.2,0 0,22.7 0,45.3 0,68 -16.5,0 -32.9,0 -49.2,0 z M 16,67.2 c 14.5,0 28.9,0 43.4,0 0,-20.8 0,-41.5 0,-62.2 -14.5,0 -29,0 -43.4,0 0,20.7 0,41.4 0,62.2 z"
   id="path5"
   inkscape:connector-curvature="0" />
	<path
   d="m 13.1,70.1 c 16.4,0 32.7,0 49.2,0 0,-22.7 0,-45.3 0,-68 0,0 0.1,0 0.1,0 0,0.1 0,0.3 0,0.4 0,22.6 0,45.1 0,67.7 -16.3,0 -32.6,0 -48.8,0 -0.2,0 -0.4,-0.1 -0.5,-0.1 z"
   id="path7"
   inkscape:connector-curvature="0"
   style="fill:#ffffff" />
	<path
   d="M 16,67.2 C 16,46.5 16,25.8 16,5 c 14.5,0 28.9,0 43.4,0 0,20.7 0,41.4 0,62.2 -14.5,0 -28.9,0 -43.4,0 z m 6.8,-27.4 c 10.4,0 20.8,0 31.2,0 0,-1 0,-1.9 0,-2.9 -10.4,0 -20.8,0 -31.2,0 0,1 0,2 0,2.9 z m 0,6.9 c 10.4,0 20.8,0 31.2,0 0,-1 0,-1.9 0,-2.9 -10.4,0 -20.8,0 -31.2,0 0,1 0,1.9 0,2.9 z m 0,6.8 c 10.4,0 20.8,0 31.2,0 0,-1 0,-1.9 0,-2.9 -10.4,0 -20.8,0 -31.2,0 0,1 0,1.9 0,2.9 z M 41.9,33.7 c 1.9,0 3.6,-0.3 5.3,-0.8 2.5,-0.9 4.7,-2.3 6.2,-4.5 2.2,-3.1 2.6,-6.5 1.8,-10.1 -1.1,-4.6 -4,-7.8 -8.4,-9.5 C 44,7.7 41.1,7.7 38.2,8.6 c -0.8,0.2 -1.5,0.5 -2.3,0.9 -0.4,0.2 -0.6,0.7 -0.4,1 0.2,0.4 0.6,0.3 0.9,0.1 0.7,-0.3 1.4,-0.5 2.2,-0.8 3.3,-1.1 6.6,-0.7 9.6,1.1 3.8,2.2 5.8,5.6 6.1,9.9 0.3,4.1 -1.9,8.2 -5.6,10 -4.4,2.2 -8.9,2.2 -13.2,0 -2.6,-1.3 -4.4,-3.4 -5.2,-6.3 -0.9,-3.1 -0.3,-6.1 1,-8.9 0.2,-0.4 0.1,-0.9 -0.3,-1 -0.4,-0.2 -0.6,0.1 -0.7,0.5 -0.3,0.8 -0.6,1.5 -0.9,2.3 -0.6,1.9 -1,3.9 -0.6,5.9 0.5,3 1.8,5.4 4.2,7.3 2.5,2.2 5.6,3.1 8.9,3.1 z M 22.8,59.8 c 10.4,0 20.8,0 31.2,0 0,-1 0,-1.9 0,-2.9 -10.4,0 -20.8,0 -31.2,0 0,1 0,1.9 0,2.9 z m 9.9,-34.5 c 0.1,0 0.1,0 0.2,0 0.6,0 1.2,0 1.8,0 0.4,0 1,0.1 1.3,-0.1 0.3,-0.2 0.3,-0.7 0.4,-1.1 0.1,-0.2 0.2,-0.3 0.4,-0.3 0.6,0 1.2,0 1.8,0 0.4,0 0.9,-0.1 1.2,0.1 0.3,0.2 0.3,0.7 0.4,1.1 0,0 0,0.1 0,0.1 0.1,0.1 0.2,0.2 0.3,0.2 1,0 2.1,0 3.1,0 0,-0.1 0,-0.2 0,-0.2 -1.3,-3.5 -2.5,-6.9 -3.8,-10.3 0,-0.1 -0.3,-0.3 -0.4,-0.3 -0.8,0 -1.7,0 -2.5,0 -0.3,0 -0.5,0.1 -0.6,0.4 -0.5,2.1 -1.3,4.1 -2,6.2 -0.5,1.4 -1,2.8 -1.6,4.2 z m 14.5,-2.7 c 0,0.9 0,1.8 0,2.6 0.8,0 1.5,0 2.3,0 0,-0.9 0,-1.7 0,-2.7 0.9,0 1.8,0 2.6,0 0,-0.8 0,-1.5 0,-2.3 -0.9,0 -1.8,0 -2.7,0 0,-0.9 0,-1.8 0,-2.6 -0.8,0 -1.5,0 -2.3,0 0,0.9 0,1.8 0,2.7 -0.9,0 -1.8,0 -2.6,0 0,0.8 0,1.5 0,2.3 0.9,0 1.8,0 2.7,0 z"
   id="path9"
   inkscape:connector-curvature="0"
   style="fill:#ffffff" />
	<path
   d="m 22.8,39.8 c 0,-1 0,-1.9 0,-2.9 10.4,0 20.8,0 31.2,0 0,0.9 0,1.9 0,2.9 -10.4,0 -20.8,0 -31.2,0 z"
   id="path11"
   inkscape:connector-curvature="0" />
	<path
   d="m 22.8,46.7 c 0,-1 0,-1.9 0,-2.9 10.4,0 20.8,0 31.2,0 0,0.9 0,1.9 0,2.9 -10.4,0 -20.8,0 -31.2,0 z"
   id="path13"
   inkscape:connector-curvature="0" />
	<path
   d="m 22.8,53.5 c 0,-1 0,-1.9 0,-2.9 10.4,0 20.8,0 31.2,0 0,0.9 0,1.9 0,2.9 -10.4,0 -20.8,0 -31.2,0 z"
   id="path15"
   inkscape:connector-curvature="0" />
	<path
   d="m 41.9,33.7 c -3.2,0 -6.4,-0.9 -9,-3.1 -2.3,-1.9 -3.7,-4.4 -4.2,-7.3 -0.3,-2 0,-4 0.6,-5.9 0.3,-0.8 0.6,-1.6 0.9,-2.3 0.1,-0.3 0.3,-0.6 0.7,-0.5 0.4,0.2 0.5,0.6 0.3,1 -1.3,2.9 -1.9,5.8 -1,8.9 0.8,2.8 2.6,5 5.2,6.3 4.4,2.2 8.8,2.2 13.2,0 3.7,-1.8 5.9,-5.9 5.6,-10 -0.3,-4.4 -2.4,-7.7 -6.1,-9.9 -3,-1.8 -6.2,-2.1 -9.6,-1.1 -0.7,0.2 -1.4,0.5 -2.2,0.8 -0.3,0.1 -0.7,0.3 -0.9,-0.1 -0.2,-0.3 0,-0.8 0.4,-1 0.7,-0.3 1.5,-0.6 2.3,-0.9 2.9,-0.9 5.8,-0.9 8.6,0.2 4.4,1.7 7.2,4.9 8.4,9.5 0.9,3.6 0.4,7 -1.8,10.1 -1.6,2.2 -3.7,3.6 -6.2,4.5 -1.6,0.6 -3.3,0.8 -5.2,0.8 z"
   id="path17"
   inkscape:connector-curvature="0" />
	<path
   d="m 22.8,59.8 c 0,-1 0,-1.9 0,-2.9 10.4,0 20.8,0 31.2,0 0,1 0,1.9 0,2.9 -10.4,0 -20.8,0 -31.2,0 z"
   id="path19"
   inkscape:connector-curvature="0" />
	<path
   d="m 32.7,25.3 c 0.5,-1.4 1,-2.8 1.5,-4.2 0.8,-2.1 1.5,-4.1 2.3,-6.2 0.1,-0.3 0.2,-0.4 0.6,-0.4 0.8,0 1.7,0 2.5,0 0.1,0 0.4,0.1 0.4,0.3 1.3,3.4 2.5,6.9 3.8,10.3 0,0.1 0,0.1 0,0.2 -1.1,0 -2.1,0 -3.1,0 -0.1,0 -0.2,-0.2 -0.3,-0.2 0,0 0,-0.1 0,-0.1 -0.1,-0.4 -0.2,-0.9 -0.4,-1.1 -0.3,-0.2 -0.8,-0.1 -1.2,-0.1 -0.6,0 -1.2,0 -1.8,0 -0.3,0 -0.4,0.1 -0.4,0.3 -0.1,0.4 -0.2,1 -0.4,1.1 -0.3,0.2 -0.9,0.1 -1.3,0.1 -0.6,0 -1.2,0 -1.8,0 -0.2,0 -0.3,0 -0.4,0 z m 4.6,-3.9 c 0.7,0 1.3,0 2,0 -0.3,-1.1 -0.6,-2.1 -0.9,-3.2 0,0 -0.1,0 -0.1,0 -0.3,1.1 -0.7,2.1 -1,3.2 z"
   id="path21"
   inkscape:connector-curvature="0" />
	<path
   d="m 47.2,22.6 c -0.9,0 -1.8,0 -2.7,0 0,-0.8 0,-1.5 0,-2.3 0.9,0 1.7,0 2.6,0 0,-0.9 0,-1.8 0,-2.7 0.8,0 1.5,0 2.3,0 0,0.9 0,1.7 0,2.6 0.9,0 1.8,0 2.7,0 0,0.8 0,1.5 0,2.3 -0.9,0 -1.7,0 -2.6,0 0,0.9 0,1.8 0,2.7 -0.8,0 -1.5,0 -2.3,0 0,-0.8 0,-1.6 0,-2.6 z"
   id="path23"
   inkscape:connector-curvature="0" />
	<path
   d="m 37.3,21.4 c 0.3,-1.1 0.7,-2.1 1,-3.2 0,0 0.1,0 0.1,0 0.3,1 0.6,2.1 0.9,3.2 -0.7,0 -1.3,0 -2,0 z"
   id="path25"
   inkscape:connector-curvature="0"
   style="fill:#ffffff" />
</g>
</svg>