<?xml version="1.0" encoding="UTF-8" standalone="no"?>
<!-- Created with Inkscape (http://www.inkscape.org/) -->

<svg
   xmlns:dc="http://purl.org/dc/elements/1.1/"
   xmlns:cc="http://creativecommons.org/ns#"
   xmlns:rdf="http://www.w3.org/1999/02/22-rdf-syntax-ns#"
   xmlns:svg="http://www.w3.org/2000/svg"
   xmlns="http://www.w3.org/2000/svg"
   xmlns:sodipodi="http://sodipodi.sourceforge.net/DTD/sodipodi-0.dtd"
   xmlns:inkscape="http://www.inkscape.org/namespaces/inkscape"
   width="112"
   height="60"
   id="svg3254"
   version="1.1"
   inkscape:version="0.48.5 r10040"
   sodipodi:docname="attend-new.svg">
  <defs
     id="defs3256" />
  <sodipodi:namedview
     id="base"
     pagecolor="#ffffff"
     bordercolor="#666666"
     borderopacity="1.0"
     inkscape:pageopacity="0.0"
     inkscape:pageshadow="2"
     inkscape:zoom="3.959798"
     inkscape:cx="80.181001"
     inkscape:cy="7.5426927"
     inkscape:document-units="px"
     inkscape:current-layer="layer1"
     showgrid="false"
     fit-margin-top="0"
     fit-margin-left="0"
     fit-margin-right="0"
     fit-margin-bottom="0"
     inkscape:window-width="1920"
     inkscape:window-height="1053"
     inkscape:window-x="1911"
     inkscape:window-y="-9"
     inkscape:window-maximized="1" />
  <metadata
     id="metadata3259">
    <rdf:RDF>
      <cc:Work
         rdf:about="">
        <dc:format>image/svg+xml</dc:format>
        <dc:type
           rdf:resource="http://purl.org/dc/dcmitype/StillImage" />
        <dc:title></dc:title>
      </cc:Work>
    </rdf:RDF>
  </metadata>
  <g
     inkscape:label="Layer 1"
     inkscape:groupmode="layer"
     id="layer1"
     transform="translate(-123.99998,-513.79077)">
    <path
       d="m 145.87625,516.59439 c -0.29944,-0.005 -0.60661,0.0185 -0.90625,0.0625 -0.29834,0.0438 -0.60771,0.0952 -0.90625,0.1875 -0.0219,0.007 -0.0406,0.0242 -0.0625,0.0312 -0.0597,0.0295 -0.0653,-0.0295 -0.125,0 l -1.09375,0.53125 c -1.94049,1.33165 -2.36825,3.47545 -3.03125,5.4375 5.20221,1.80756 10.38981,3.56461 15.5625,5.3125 l 0.5625,-1.6875 c 0.18082,-0.5351 0.37884,-1.08817 0.5,-1.59375 0.21218,-0.92198 0.0764,-1.89153 -0.1875,-2.875 -0.17715,-0.35796 -0.38252,-0.80002 -0.5,-1.1875 -0.0563,-0.0538 -0.10256,-0.10254 -0.15625,-0.15625 0.0312,0.0631 0.0625,0.1244 0.0937,0.1875 -0.23711,-0.25402 -0.45935,-0.5197 -0.71875,-0.78125 -0.25941,-0.26155 -0.54698,-0.49426 -0.84375,-0.71875 -0.47484,-0.35918 -1.0274,-0.60043 -1.5625,-0.78125 -1.54566,-0.57197 -3.14012,-1.05019 -4.65625,-1.5625 -0.61813,-0.2329 -1.22477,-0.38224 -1.84375,-0.40625 -0.0415,-0.002 -0.0835,6.7e-4 -0.125,0 z"
       id="path7-4-4"
       inkscape:connector-curvature="0" />
    <path
       inkscape:connector-curvature="0"
       id="path9-0-5"
       d="m 131.7874,571.72467 c -0.20361,-1.16184 -0.43735,-2.2345 -0.6711,-3.30716 -0.70123,-3.21797 -1.43199,-6.49561 -2.13323,-9.71359 -0.0295,-0.0597 6.1e-4,-0.14884 -0.0584,-0.26816 0.92137,0.36102 1.81444,0.36469 2.76839,0.0411 0.55851,1.72892 1.74437,2.92457 3.52805,3.5273 1.6945,0.57258 3.36254,0.34129 4.85527,-0.69451 0.53266,0.77619 1.27443,1.37464 2.22593,1.64647 -0.56769,0.50375 -1.10524,0.91831 -1.55361,1.36301 -2.83784,2.36988 -5.70581,4.82895 -8.57378,7.28801 -0.0597,0.0295 -0.0898,0.11872 -0.14946,0.14824 -0.0892,-0.0301 -0.14885,-6.1e-4 -0.23803,-0.0308 z" />
    <path
       inkscape:connector-curvature="0"
       id="path13-4-1"
       d="m 149.16934,529.10684 c -0.0301,0.0892 -0.0603,0.17838 -0.12055,0.35674 -3.10463,9.33482 -6.23878,18.60998 -9.37293,27.88515 -0.39177,1.15939 -1.10953,1.96021 -2.36056,2.13369 -1.87654,0.26021 -3.44743,-1.41334 -3.02308,-3.2573 0.0307,-0.23803 0.091,-0.41639 0.15129,-0.59476 3.13415,-9.27517 6.29844,-18.63951 9.4326,-27.91467 0.0301,-0.0892 0.0904,-0.26756 0.15006,-0.29708 1.75416,0.54306 3.44867,1.11565 5.14317,1.68823 z" />
    <path
       inkscape:connector-curvature="0"
       id="path15-8-7"
       d="m 138.70526,525.52126 c 0.98102,0.3315 1.78368,0.60272 2.67552,0.90408 -0.0301,0.0892 -0.0904,0.26756 -0.091,0.4164 -3.13415,9.27516 -6.32796,18.57985 -9.43259,27.91467 -0.21095,0.62429 -0.57014,1.09912 -1.25531,1.21538 -0.92321,0.0855 -1.69389,-0.72143 -1.48172,-1.6434 0.0603,-0.17838 0.0609,-0.32722 0.12116,-0.50559 3.13415,-9.27516 6.26831,-18.55032 9.40246,-27.82548 0.0603,-0.17838 0.0609,-0.32722 0.0615,-0.47606 z" />
    <path
       inkscape:connector-curvature="0"
       id="path17-8-1"
       d="m 151.81534,529.95127 c 0.89184,0.30136 1.6945,0.57258 2.58634,0.87394 -0.0301,0.0892 -0.0904,0.26756 -0.12054,0.35674 -3.10463,9.33482 -6.29844,18.63951 -9.40307,27.97433 -0.12055,0.35674 -0.33027,0.68334 -0.53939,0.86109 -0.41823,0.35552 -1.07327,0.38259 -1.51858,0.0831 -0.5345,-0.32966 -0.74055,-0.89613 -0.58925,-1.4909 6.1e-4,-0.14884 0.0904,-0.26755 0.091,-0.4164 3.13415,-9.27516 6.26831,-18.55032 9.40246,-27.82548 6.1e-4,-0.14884 0.0904,-0.26756 0.091,-0.4164 z" />
    <text
       xml:space="preserve"
       style="font-size:136.55725098px;font-style:normal;font-weight:normal;line-height:125%;letter-spacing:0px;word-spacing:0px;fill:#000000;fill-opacity:1;stroke:none;font-family:sans-serif"
       x="196.07817"
       y="441.17267"
       id="text3079"
       sodipodi:linespacing="125%"
       transform="scale(0.7855179,1.2730455)"><tspan
         sodipodi:role="line"
         id="tspan3081"
         x="196.07817"
         y="441.17267"
         style="font-size:34.13931274px">MARK</tspan></text>
  </g>
</svg>
