<?xml version="1.0" encoding="UTF-8" standalone="no"?>
<!-- Generator: Adobe Illustrator 18.1.0, SVG Export Plug-In . SVG Version: 6.00 Build 0)  -->

<svg
   xmlns:dc="http://purl.org/dc/elements/1.1/"
   xmlns:cc="http://creativecommons.org/ns#"
   xmlns:rdf="http://www.w3.org/1999/02/22-rdf-syntax-ns#"
   xmlns:svg="http://www.w3.org/2000/svg"
   xmlns="http://www.w3.org/2000/svg"
   xmlns:sodipodi="http://sodipodi.sourceforge.net/DTD/sodipodi-0.dtd"
   xmlns:inkscape="http://www.inkscape.org/namespaces/inkscape"
   version="1.1"
   id="Layer_2"
   x="0px"
   y="0px"
   viewBox="0 0 24 24"
   enable-background="new 0 0 72 72"
   xml:space="preserve"
   inkscape:version="0.48.4 r9939"
   width="100%"
   height="100%"
   sodipodi:docname="icon.svg"><metadata
   id="metadata23"><rdf:RDF><cc:Work
       rdf:about=""><dc:format>image/svg+xml</dc:format><dc:type
         rdf:resource="http://purl.org/dc/dcmitype/StillImage" /><dc:title /></cc:Work></rdf:RDF></metadata><defs
   id="defs21">
	
	
	
	
	
	
	
</defs><sodipodi:namedview
   pagecolor="#ffffff"
   bordercolor="#666666"
   borderopacity="1"
   objecttolerance="10"
   gridtolerance="10"
   guidetolerance="10"
   inkscape:pageopacity="0"
   inkscape:pageshadow="2"
   inkscape:window-width="1366"
   inkscape:window-height="706"
   id="namedview19"
   showgrid="false"
   inkscape:zoom="18.541911"
   inkscape:cx="19.210031"
   inkscape:cy="12.077014"
   inkscape:window-x="-8"
   inkscape:window-y="-8"
   inkscape:window-maximized="1"
   inkscape:current-layer="Layer_2" />
<g
   id="g2996"><path
     d="m 10.496377,3.1666666 c 0.605797,0.1275363 1.211594,0.1913044 1.785507,0.3507247 1.689855,0.4463768 3.156522,1.2115942 4.272464,2.5826087 1.689855,2.0405797 1.562319,4.718841 -0.318841,6.6 -1.626087,1.626087 -3.666666,2.391304 -5.930435,2.518841 -0.8927532,0.06377 -1.8173908,-0.06377 -2.7101445,-0.159421 -0.2869565,-0.03188 -0.5420289,0 -0.7971014,0.191305 C 5.4905797,16.175362 4.1833333,17.068116 2.8123188,17.928986 3.45,16.685507 4.1195652,15.442029 4.7253623,14.262319 4.023913,13.688406 3.3224638,13.210145 2.7166667,12.636232 1.8876812,11.871014 1.4731884,10.850725 1.25,9.7666667 c 0,-0.3826087 0,-0.7333334 0,-1.1159421 C 1.4731884,7.757971 1.7601449,6.9289855 2.365942,6.1956522 3.5137681,4.7927536 5.0123188,3.9956522 6.734058,3.5492753 7.307971,3.3898551 7.9137681,3.2942029 8.5195652,3.1985507 9.1572464,3.1666666 9.8268116,3.1666666 10.496377,3.1666666 z M 6.8615942,9.8623188 c 0,-0.573913 0,-1.1478261 0,-1.689855 -0.573913,0 -1.115942,0 -1.657971,0 0,0.573913 0,1.115942 0,1.689855 0.542029,0 1.084058,0 1.657971,0 z m 3.5391308,-1.689855 c -0.5739134,0 -1.1159424,0 -1.6898554,0 0,0.573913 0,1.147826 0,1.689855 0.573913,0 1.115942,0 1.6898554,0 0,-0.573913 0,-1.115942 0,-1.689855 z m 3.507246,1.689855 c 0,-0.6057971 0,-1.1478261 0,-1.689855 -0.573913,0 -1.115942,0 -1.657971,0 0,0.573913 0,1.147826 0,1.689855 0.542029,0 1.084058,0 1.657971,0 z"
     id="path7"
     inkscape:connector-curvature="0" /><path
     d="m 9.3485507,16.685507 c 1.2753623,-0.223188 2.5507243,-0.350724 3.7304353,-0.701449 2.104347,-0.573913 3.921739,-1.689855 5.165217,-3.571015 0.828985,-1.243478 1.115942,-2.6144923 0.828985,-4.081159 -0.03188,-0.095652 0,-0.1913043 -0.03188,-0.3507246 1.944928,0.8289855 3.539131,1.9768116 3.985508,4.1130436 0.542029,2.710145 -1.084058,4.336232 -3.188406,5.611594 0.605797,1.17971 1.211594,2.327536 1.881159,3.602899 -0.191304,-0.09565 -0.286956,-0.159421 -0.382608,-0.223189 -1.147827,-0.797101 -2.327537,-1.626087 -3.475363,-2.391304 -0.191304,-0.09565 -0.446377,-0.15942 -0.637681,-0.09565 -2.327536,0.414492 -4.55942,0.127536 -6.631884,-1.02029 -0.446377,-0.286957 -0.8608696,-0.605797 -1.2434783,-0.892754 z"
     id="path11"
     inkscape:connector-curvature="0" /><path
     d="m 6.8615942,9.8623188 c -0.573913,0 -1.115942,0 -1.657971,0 0,-0.573913 0,-1.115942 0,-1.689855 0.542029,0 1.084058,0 1.657971,0 0,0.5420289 0,1.115942 0,1.689855 z"
     id="path13"
     inkscape:connector-curvature="0"
     style="fill:#ffffff" /><path
     d="m 10.400725,8.1724638 c 0,0.573913 0,1.115942 0,1.689855 -0.5739134,0 -1.1159424,0 -1.6898554,0 0,-0.542029 0,-1.115942 0,-1.689855 0.542029,0 1.115942,0 1.6898554,0 z"
     id="path15"
     inkscape:connector-curvature="0"
     style="fill:#ffffff" /><path
     d="m 13.907971,9.8623188 c -0.573913,0 -1.115942,0 -1.657971,0 0,-0.573913 0,-1.115942 0,-1.689855 0.542029,0 1.084058,0 1.657971,0 0,0.5420289 0,1.0840579 0,1.689855 z"
     id="path17"
     inkscape:connector-curvature="0"
     style="fill:#ffffff" /></g>
</svg>