<?xml version="1.0" encoding="UTF-8" standalone="no"?>
<!-- Generator: Adobe Illustrator 18.1.0, SVG Export Plug-In . SVG Version: 6.00 Build 0)  -->

<svg
   xmlns:dc="http://purl.org/dc/elements/1.1/"
   xmlns:cc="http://creativecommons.org/ns#"
   xmlns:rdf="http://www.w3.org/1999/02/22-rdf-syntax-ns#"
   xmlns:svg="http://www.w3.org/2000/svg"
   xmlns="http://www.w3.org/2000/svg"
   xmlns:sodipodi="http://sodipodi.sourceforge.net/DTD/sodipodi-0.dtd"
   xmlns:inkscape="http://www.inkscape.org/namespaces/inkscape"
   version="1.1"
   id="Layer_1"
   x="0px"
   y="0px"
   viewBox="0 0 24 24"
   enable-background="new 0 0 216 216"
   xml:space="preserve"
   inkscape:version="0.48.4 r9939"
   width="100%"
   height="100%"
   sodipodi:docname="url.svg"><metadata
   id="metadata11"><rdf:RDF><cc:Work
       rdf:about=""><dc:format>image/svg+xml</dc:format><dc:type
         rdf:resource="http://purl.org/dc/dcmitype/StillImage" /><dc:title></dc:title></cc:Work></rdf:RDF></metadata><defs
   id="defs9" /><sodipodi:namedview
   pagecolor="#ffffff"
   bordercolor="#666666"
   borderopacity="1"
   objecttolerance="10"
   gridtolerance="10"
   guidetolerance="10"
   inkscape:pageopacity="0"
   inkscape:pageshadow="2"
   inkscape:window-width="750"
   inkscape:window-height="527"
   id="namedview7"
   showgrid="false"
   inkscape:zoom="12.361274"
   inkscape:cx="14.710673"
   inkscape:cy="14.134046"
   inkscape:window-x="0"
   inkscape:window-y="0"
   inkscape:window-maximized="0"
   inkscape:current-layer="Layer_1" />
<path
   d="m 11.644817,1.01061 c 0.106024,0.74217 0.286265,1.48434 0.265061,2.21591 0,0.18024 -0.646747,0.49831 -0.996627,0.50891 -2.343133,0.0424 -4.686265,0.0212 -7.1036144,0.0212 0,5.48144 0,10.93108 0,16.43373 5.4390364,0 10.8886744,0 16.4337344,0 0,-1.80241 0,-3.59422 0,-5.39663 0,-0.65734 -0.05301,-1.3253 0.03181,-1.97204 0.03181,-0.27567 0.339277,-0.75277 0.508915,-0.75277 C 21.526265,12.07952 22.257831,12.23855 23,12.34458 23,15.89639 23,19.44819 23,23 15.663133,23 8.336867,23 1,23 1,15.66313 1,8.33687 1,1 4.5412048,1.0106 8.093012,1.0106 11.644819,1.0106 z"
   id="path3"
   inkscape:connector-curvature="0" />
<path
   d="m 22.989396,8.48531 c 0,0.53012 -0.551326,0.8906 -1.028434,0.65735 C 21.812528,9.06846 21.674697,8.95182 21.526263,8.79278 21.006745,8.20965 20.444817,7.66893 19.872287,7.0964 19.596625,6.82073 19.151323,6.82073 18.875661,7.0858 c -0.05301,0.0424 -0.09542,0.0848 -0.137832,0.13783 -1.98265,1.98266 -3.954698,3.96531 -5.937349,5.93735 -0.710362,0.69976 -0.933012,0.67856 -1.749398,-0.12723 -0.88,-0.88 -0.911807,-1.10265 -0.201445,-1.81301 C 12.832287,9.20629 14.836143,7.21303 16.93542,5.11375 17.221685,4.82749 17.221685,4.37159 16.92482,4.08532 16.35229,3.52339 15.790362,2.98267 15.20723,2.46315 14.878555,2.17689 14.730121,1.90122 14.761929,1.61496 14.804339,1.26508 15.122411,1.01062 15.47229,1.01062 h 6.796145 c 0.402891,0 0.720964,0.31807 0.720964,0.72097 v 6.75373 z"
   id="path5"
   inkscape:connector-curvature="0"
   style="fill:#ac1f24" />
</svg>