<?xml version="1.0" encoding="UTF-8" standalone="no"?>
<!-- Generator: Adobe Illustrator 18.1.0, SVG Export Plug-In . SVG Version: 6.00 Build 0)  -->

<svg
   xmlns:dc="http://purl.org/dc/elements/1.1/"
   xmlns:cc="http://creativecommons.org/ns#"
   xmlns:rdf="http://www.w3.org/1999/02/22-rdf-syntax-ns#"
   xmlns:svg="http://www.w3.org/2000/svg"
   xmlns="http://www.w3.org/2000/svg"
   xmlns:sodipodi="http://sodipodi.sourceforge.net/DTD/sodipodi-0.dtd"
   xmlns:inkscape="http://www.inkscape.org/namespaces/inkscape"
   version="1.1"
   id="Layer_2"
   x="0px"
   y="0px"
   viewBox="0 0 24 24"
   enable-background="new 0 0 72 72"
   xml:space="preserve"
   inkscape:version="0.48.4 r9939"
   width="100%"
   height="100%"
   sodipodi:docname="icon.svg"><metadata
   id="metadata23"><rdf:RDF><cc:Work
       rdf:about=""><dc:format>image/svg+xml</dc:format><dc:type
         rdf:resource="http://purl.org/dc/dcmitype/StillImage" /><dc:title /></cc:Work></rdf:RDF></metadata><defs
   id="defs21">
	
	
	
	
	
	
	
</defs><sodipodi:namedview
   pagecolor="#ffffff"
   bordercolor="#666666"
   borderopacity="1"
   objecttolerance="10"
   gridtolerance="10"
   guidetolerance="10"
   inkscape:pageopacity="0"
   inkscape:pageshadow="2"
   inkscape:window-width="1366"
   inkscape:window-height="706"
   id="namedview19"
   showgrid="false"
   inkscape:zoom="13.111111"
   inkscape:cx="16.54489"
   inkscape:cy="16.117221"
   inkscape:window-x="-8"
   inkscape:window-y="-8"
   inkscape:window-maximized="1"
   inkscape:current-layer="Layer_2" />
<g
   id="g2996"><path
     d="M 22.966717,6.0590017 C 22.866869,6.5582453 22.700454,7.024206 22.400908,7.3903179 22.234493,7.5900153 22.034796,7.7897128 21.835099,7.9894102 21.635401,8.1891076 21.402421,8.422088 21.202723,8.6217854 19.272315,6.6913769 17.341906,4.7609684 15.411498,2.797277 16.143722,2.0650531 16.80938,1.1996976 17.974282,1.0332831 c 0.199697,0 0.432677,0 0.632375,0 0.03328,0 0.03328,0.033283 0.06657,0.033283 0.665658,0.099849 1.231467,0.4326777 1.697428,0.8986384 0.565809,0.5658094 1.164901,1.1316188 1.730711,1.7307111 0.199697,0.1996974 0.399395,0.4326777 0.532526,0.698941 0.166415,0.332829 0.232981,0.6656581 0.366112,1.03177 -0.03328,0.1996974 -0.03328,0.4326778 -0.03328,0.6323752 z"
     id="path7"
     inkscape:connector-curvature="0" /><path
     d="m 1,22.933435 c 0.1664145,-0.56581 0.2995461,-1.098336 0.4326778,-1.630863 0.3993948,-1.597579 0.7987897,-3.228442 1.1981846,-4.826021 0,-0.03328 0.033283,-0.06657 0.033283,-0.133132 0.332829,0.366112 0.7322239,0.56581 1.2314674,0.632376 -0.1331316,0.898638 0.1331317,1.697428 0.7987898,2.363086 0.6323752,0.632375 1.4311649,0.898638 2.3298033,0.765507 0.066566,0.46596 0.2662633,0.898638 0.6323752,1.231467 C 7.2904691,21.435704 6.95764,21.50227 6.6580939,21.602118 4.860817,22.034796 3.0302572,22.500757 1.1996974,22.966717 1.1664145,22.966717 1.1331316,23 1.0998487,23 1.0665658,22.966717 1.0332829,22.966717 1,22.933435 z"
     id="path9"
     inkscape:connector-curvature="0" /><path
     d="M 22.966717,5.4266265 C 22.866869,5.0937975 22.76702,4.7276855 22.600605,4.3948565 22.467474,4.1285932 22.267776,3.8956129 22.068079,3.6959155 21.502269,3.0968232 20.903177,2.5310138 20.337368,1.9652044 19.871407,1.4659608 19.305598,1.1664147 18.63994,1.066566 c -0.03328,0 -0.03328,-0.033283 -0.06657,-0.033283 1.464448,0 2.928895,0 4.36006,0 0.03328,1.4644478 0.03328,2.9288956 0.03328,4.3933434 z"
     id="path11"
     inkscape:connector-curvature="0"
     style="fill:#ffffff" /><path
     d="m 18.240545,7.6898641 c -0.03328,0.033283 -0.06657,0.066566 -0.133132,0.1331316 C 14.645991,11.317701 11.184569,14.779123 7.7231468,18.240545 7.2904691,18.673223 6.7912255,18.87292 6.1921332,18.673223 5.2934947,18.373677 4.9606657,17.275341 5.559758,16.543117 5.6263238,16.443268 5.6928896,16.376702 5.7594554,16.310136 9.2208775,12.848714 12.715583,9.3540093 16.177005,5.8925872 c 0.03328,-0.033283 0.09985,-0.099849 0.133131,-0.099849 0.665658,0.6323752 1.298034,1.2647504 1.930409,1.8971256 z"
     id="path13"
     inkscape:connector-curvature="0" /><path
     d="m 14.346445,3.7624813 c 0.366112,0.3661119 0.665658,0.6656581 0.998487,0.9984871 -0.03328,0.033283 -0.09985,0.099849 -0.133132,0.1664145 C 11.750378,8.3888051 8.2556733,11.850227 4.7942512,15.344932 4.5612708,15.577913 4.2950076,15.711044 3.9621786,15.611195 3.5295008,15.444781 3.3630863,14.912254 3.6626324,14.546142 3.7291982,14.479577 3.7624811,14.413011 3.8290469,14.346445 7.2904691,10.885023 10.751891,7.4236008 14.213313,3.9621787 c 0.06657,-0.066566 0.09985,-0.1331316 0.133132,-0.1996974 z"
     id="path15"
     inkscape:connector-curvature="0" /><path
     d="m 19.239032,8.6550683 c 0.332829,0.3328291 0.632375,0.6323752 0.965204,0.9652042 -0.03328,0.033283 -0.09985,0.099849 -0.133131,0.1331317 C 16.609682,13.248109 13.114977,16.709531 9.6535553,20.204236 9.5204237,20.337368 9.3540092,20.437217 9.2208775,20.4705 8.9546143,20.537065 8.6550682,20.403934 8.5219365,20.170953 8.355522,19.90469 8.3888049,19.605144 8.5885023,19.372164 c 0.033283,-0.06657 0.099849,-0.09985 0.1331317,-0.166415 3.461422,-3.461422 6.922844,-6.922844 10.384266,-10.3842662 0.03328,-0.066566 0.09985,-0.099849 0.133132,-0.1664145 z"
     id="path17"
     inkscape:connector-curvature="0" /></g>
</svg>