<?xml version="1.0" encoding="UTF-8" standalone="no"?>
<svg
   xmlns:dc="http://purl.org/dc/elements/1.1/"
   xmlns:cc="http://creativecommons.org/ns#"
   xmlns:rdf="http://www.w3.org/1999/02/22-rdf-syntax-ns#"
   xmlns:svg="http://www.w3.org/2000/svg"
   xmlns="http://www.w3.org/2000/svg"
   xmlns:sodipodi="http://sodipodi.sourceforge.net/DTD/sodipodi-0.dtd"
   xmlns:inkscape="http://www.inkscape.org/namespaces/inkscape"
   version="1.1"
   x="0px"
   y="0px"
   viewBox="0 0 24 24"
   enable-background="new 0 0 100 100"
   xml:space="preserve"
   id="svg2"
   inkscape:version="0.48.5 r10040"
   width="100%"
   height="100%"
   sodipodi:docname="noun_35901.svg"><metadata
     id="metadata10"><rdf:RDF><cc:Work
         rdf:about=""><dc:format>image/svg+xml</dc:format><dc:type
           rdf:resource="http://purl.org/dc/dcmitype/StillImage" /><dc:title></dc:title></cc:Work></rdf:RDF></metadata><defs
     id="defs8" /><sodipodi:namedview
     pagecolor="#ffffff"
     bordercolor="#666666"
     borderopacity="1"
     objecttolerance="10"
     gridtolerance="10"
     guidetolerance="10"
     inkscape:pageopacity="0"
     inkscape:pageshadow="2"
     inkscape:window-width="965"
     inkscape:window-height="675"
     id="namedview6"
     showgrid="false"
     inkscape:zoom="3.337544"
     inkscape:cx="96.660224"
     inkscape:cy="10.307953"
     inkscape:window-x="2637"
     inkscape:window-y="241"
     inkscape:window-maximized="0"
     inkscape:current-layer="svg2" /><path
     d="m 19.087426,16.933413 c 0.06438,0.331086 0.04821,0.73742 -0.09726,1.040079 -0.07748,0.160527 -0.382366,0.690043 -0.515302,0.78229 -0.471269,0.331087 -0.38794,-0.141297 -0.29625,-0.440055 0.06772,-0.219052 0.110641,-0.665796 0.238282,-0.845274 0.165822,-0.23243 0.476564,-0.28148 0.670534,-0.53704 z M 11.059413,4.703555 C 11.052713,4.657845 10.728605,4.203859 10.682064,4.106596 10.614344,3.969479 10.520701,3.84992 10.455487,3.713082 l -0.05295,-0.133215 c 0.0089,0.02982 0.01923,0.05853 0.03066,0.08667 0.0081,0.01366 0.01505,0.02815 0.02146,0.04403 -0.0064,-0.01421 -0.01561,-0.02871 -0.02146,-0.04403 -0.107017,-0.185051 -0.327463,-0.136559 -0.441727,0.05184 -0.194249,0.31966 0.114264,0.282594 0.175855,0.489941 0.152723,0.514188 -0.277856,0.676108 -0.261414,1.108917 0.313251,-0.07998 1.214821,-0.191183 1.153508,-0.61368 z M 9.71946,4.292762 C 9.66651,4.271862 9.615508,4.261272 9.561999,4.257922 h 0.01366 c -0.0081,-2.79e-4 -0.01561,-5.58e-4 -0.02369,-8.36e-4 -0.0031,0 -0.0059,0 -0.0089,0 0,0 -8.36e-4,0 -0.0022,0 -0.01728,-2.79e-4 -0.03539,-2.79e-4 -0.05323,8.36e-4 h 0.03205 C 9.199471,4.280492 9.059289,4.713862 9.078797,5.020703 9.483738,4.85934 9.725921,4.797749 9.719511,4.292758 z M 23.85,12 C 23.85,18.533385 18.5345,23.85 12,23.85 5.466615,23.85 0.15000001,18.533385 0.15000001,12 0.15000001,5.466057 5.466615,0.15 12,0.15 18.534222,0.15 23.85,5.466057 23.85,12 z M 19.161558,8.081028 c 0.193134,0.388218 0.618976,0.335545 0.712895,-0.01477 0.07831,-0.292627 -0.171396,-0.620648 -0.242741,-0.861995 -0.08166,-0.275349 0.05908,-0.775601 -0.346693,-0.761945 l 0.148264,-0.05908 c -0.554319,0.03484 -0.678616,0.170838 -0.50499,0.637648 0.06661,0.181707 0.196756,0.294299 0.23438,0.498581 0.03289,0.175018 -0.08444,0.394071 -0.0011,0.561565 z M 17.480486,5.971326 c -0.422219,0.274512 -0.61814,0.02787 -1.041752,0.04877 -0.503319,0.02397 -0.974866,0.872585 -0.342513,1.095261 0.341676,0.120395 2.129488,0.298479 1.860271,-0.171396 l -0.02898,0.02954 C 17.789002,6.812417 17.696476,6.739121 17.642131,6.55825 17.574411,6.334738 17.921938,6.158047 17.48049,5.971323 z m 5.255581,6.455073 c -0.03623,0.258906 -0.09225,0.504434 -0.259184,0.681682 0.0075,-0.450924 -0.181708,-1.064884 -0.250266,-1.531136 -0.07748,-0.526729 -0.551254,-0.55209 -0.673878,-1.087736 -0.457056,-0.08723 -1.706991,-0.11092 -1.74127,-0.766404 -0.238561,-0.08444 -0.348644,-0.321054 -0.610894,-0.325234 -0.04069,0.552647 0.404383,1.271394 0.96985,0.981833 0.138788,0.119838 0.641828,0.378185 0.661337,0.580516 0.02034,0.230479 -0.444236,0.525056 -0.625944,0.670813 -0.343627,0.276462 -1.130933,0.8737 -1.565415,0.855028 -0.127919,-0.562123 -0.557384,-1.008309 -0.739649,-1.574333 -0.195085,-0.607271 -0.458728,-0.890423 -0.851684,-1.367265 -0.321332,0.465416 0.115378,0.997718 0.295135,1.453102 0.18338,0.465137 0.404104,1.141524 0.777831,1.467315 0.19592,0.171396 0.42612,0.308234 0.632074,0.502204 1.018063,-0.499974 1.037014,0.379579 0.568254,1.122573 -0.183659,0.291512 -0.351153,0.338611 -0.657993,0.503876 -0.39435,0.211527 -0.387104,0.312414 -0.601697,0.686419 -0.353661,0.616746 -0.397694,0.780617 -0.273118,1.509955 0.144362,0.839422 -0.348923,0.666911 -0.778388,1.21482 -0.278971,0.35589 -0.352546,1.186115 -0.765568,1.83519 -0.501647,0.383759 -1.660728,0.96539 -2.094652,0.885405 -0.711223,-0.130706 -1.140409,-2.135062 -1.145983,-2.895613 -0.0081,-0.978211 0.621205,-1.276133 -0.179757,-2.107472 -0.322447,-0.336103 -0.312971,-0.482417 -0.314365,-0.905193 -0.0028,-0.539827 -0.08751,-0.551254 -0.600582,-0.694223 C 10.88328,13.83714 9.979202,13.924928 8.956401,14.014667 8.326556,13.434151 7.633726,12.585254 7.742695,11.683684 7.427494,11.09202 7.695035,10.455766 8.154324,10.043301 8.599396,9.644213 8.810366,9.055336 9.29334,8.728709 9.814216,8.375327 10.32896,8.351081 10.910313,8.202816 c 0.53063,-0.134329 1.26164,-0.696173 1.749073,-0.164149 0.249709,0.272839 0.163035,0.520039 0.523106,0.734633 0.276741,0.164428 0.693386,0.139067 0.702305,0.56045 v 0.02954 c 0.486875,-0.16833 0.683353,-0.617303 1.236558,-0.549024 0.499695,0.06159 1.298706,0.50945 1.80509,0.187282 C 17.26227,8.788069 16.995845,8.40431 17.305188,8.159339 16.970479,8.024731 16.2626,8.005501 15.902529,8.038108 c -0.0033,0.03762 0.01867,0.09364 0.01951,0.135166 C 15.726118,7.956173 15.760676,7.420247 15.539394,7.255819 15.0096,6.86342 15.169569,7.535904 15.063945,7.708972 14.691055,8.319587 14.296426,6.948421 14.002406,6.685893 13.751861,6.460709 13.407119,6.188705 13.062934,6.180623 13.047884,6.519513 13.699746,7.281458 14.032783,7.26836 13.678565,7.386247 13.67745,7.665496 13.341905,7.646267 13.506055,7.27895 13.081606,6.629876 12.617026,6.502234 11.954574,6.319134 11.265368,6.661646 10.904183,7.173047 10.562784,7.656578 10.134992,8.158503 9.473655,7.953107 8.826531,7.752448 8.928532,6.650499 9.505425,6.476873 9.809478,6.385183 10.538258,6.770615 10.62744,6.217132 10.67983,5.897193 10.207451,5.699879 10.022399,5.502844 c 0.5755,-0.0022 1.074916,-0.271447 1.552595,-0.571041 0.144641,-0.09002 0.563237,-0.293185 0.655206,-0.404104 0.185609,-0.227134 -0.03233,-0.648796 0.357841,-0.678616 0.02369,0.665796 0.543729,0.663845 1.098048,0.615353 0.610336,-0.05323 0.659386,-0.388219 1.120622,-0.701748 0.21961,-0.149379 0.482695,-0.192576 0.759437,-0.212642 l -0.02926,0.0301 c 0.04738,-0.04125 0.08974,-0.06521 0.115936,-0.113149 -0.3623,-0.136002 -1.361134,0.08751 -1.236837,-0.511958 0.01226,-0.05908 0.639878,-0.366481 0.234381,-0.554598 -0.168331,-0.07775 -0.557943,0.334988 -0.848619,0.29848 0.01728,0.358119 0.06326,1.650973 -0.647123,1.363084 C 12.903802,3.960282 12.911884,3.610802 12.607274,3.515768 12.362303,3.439408 11.871247,3.717541 11.759491,3.359143 11.63408,2.955875 12.996328,2.319063 13.2923,2.108093 c 0.474613,-0.33889 1.248263,-0.450367 1.817631,-0.300988 0.380137,0.09949 0.71401,0.332759 1.094983,0.441449 0.326627,0.09364 0.571598,0.104509 0.807371,0.386825 h -0.02926 c -0.08779,0.149379 -0.690879,0.06131 -0.880111,-0.02564 0.401039,0.530909 0.926095,0.255282 1.490447,0.219888 -1.629793,-0.998276 -3.545524,-1.574333 -5.593356,-1.574333 -1.337723,0 -2.620266,0.246364 -3.803036,0.695895 -0.01003,0.01338 -0.02062,0.02703 -0.03261,0.04069 C 7.99993,2.17916 7.707861,2.162996 7.504973,2.315719 7.088885,2.627855 6.624026,3.116681 6.271201,3.52831 6.108724,3.718378 5.932033,4.177942 5.7258,4.290812 5.583946,4.369402 4.822558,4.371352 4.697147,4.284412 4.662307,4.260722 4.635557,4.233692 4.613537,4.203872 4.0673,4.72224 3.575129,5.297183 3.147337,5.919503 c 0.173625,0.253888 0.33025,0.516974 0.321611,0.769191 -0.017,0.551253 -0.467646,0.651025 -0.9940962,0.724879 0.4238912,0.6095 -0.2678233,0.910209 -0.5849753,1.428298 -0.299873,0.488269 -0.339726,1.096654 -0.5231056,1.61558 -0.073017,0.504154 -0.1109195,1.018342 -0.1109195,1.542562 0,0.807651 0.089739,1.595514 0.2597413,2.352442 0.1022801,0.133773 0.2232326,0.266709 0.3798577,0.416924 0.4133008,0.397973 0.9918666,0.601976 1.3006576,1.088573 0.399366,0.630959 0.633189,0.852241 1.275017,1.242689 0.414416,0.252774 1.198656,0.528122 1.097212,1.07213 -0.04125,0.222117 -0.249708,0.410513 -0.30907,0.636812 -0.05713,0.215986 0.08695,0.661337 -0.0072,0.823536 -0.122903,0.210691 -0.388497,0.101165 -0.576057,0.220724 1.920469,1.792271 4.496423,2.891155 7.324036,2.891155 5.781752,0 10.510883,-4.590342 10.736067,-10.318586 z"
     id="path4"
     style="fill:#000000;stroke:#333333;stroke-width:0.30000001;stroke-miterlimit:4;stroke-dasharray:none"
     inkscape:connector-curvature="0" /></svg>