<?xml version="1.0" encoding="UTF-8" standalone="no"?>
<!-- Generator: Adobe Illustrator 18.1.1, SVG Export Plug-In . SVG Version: 6.00 Build 0)  -->

<svg
   xmlns:dc="http://purl.org/dc/elements/1.1/"
   xmlns:cc="http://creativecommons.org/ns#"
   xmlns:rdf="http://www.w3.org/1999/02/22-rdf-syntax-ns#"
   xmlns:svg="http://www.w3.org/2000/svg"
   xmlns="http://www.w3.org/2000/svg"
   xmlns:sodipodi="http://sodipodi.sourceforge.net/DTD/sodipodi-0.dtd"
   xmlns:inkscape="http://www.inkscape.org/namespaces/inkscape"
   version="1.1"
   x="0px"
   y="0px"
   viewBox="0 0 24 24"
   enable-background="new 0 0 31.1 29.3"
   xml:space="preserve"
   id="svg2"
   inkscape:version="0.48.5 r10040"
   width="100%"
   height="100%"
   sodipodi:docname="icon.svg"><metadata
   id="metadata186"><rdf:RDF><cc:Work
       rdf:about=""><dc:format>image/svg+xml</dc:format><dc:type
         rdf:resource="http://purl.org/dc/dcmitype/StillImage" /><dc:title /></cc:Work></rdf:RDF></metadata><defs
   id="defs184">
	
	
	
	
	
	
	
	
	
	
	
	
	
	
	
	
	
</defs><sodipodi:namedview
   pagecolor="#ffffff"
   bordercolor="#666666"
   borderopacity="1"
   objecttolerance="10"
   gridtolerance="10"
   guidetolerance="10"
   inkscape:pageopacity="0"
   inkscape:pageshadow="2"
   inkscape:window-width="1920"
   inkscape:window-height="1005"
   id="namedview182"
   showgrid="false"
   borderlayer="true"
   inkscape:zoom="8.0546075"
   inkscape:cx="15.55"
   inkscape:cy="6.6214969"
   inkscape:window-x="-9"
   inkscape:window-y="-9"
   inkscape:window-maximized="1"
   inkscape:current-layer="svg2" />
<g
   id="bg"
   transform="translate(0,-5.3000001)">
	<path
   d="m 79.5,90.6 c 6.1,3.2 3.2,0.8 1.7,0.4 -0.6,-0.1 -1.1,-0.2 -1.7,-0.4 z"
   id="path5"
   inkscape:connector-curvature="0"
   style="fill:#f8f8f9" />
</g>
<path
   style="fill:#58595b"
   inkscape:connector-curvature="0"
   id="path8"
   d="M 26.5,-81.8 25.7,-88 c -0.1,-2.3 -2,-4.2 -4.3,-4.2 -2.4,0 -4.3,1.9 -4.3,4.2 l -0.8,6.2 c -0.5,0.3 -1,0.8 -1.3,1.3 1.8,0.9 3,2.8 3,5 v 4.9 h 10.7 v -7.3 c -0.1,-1.7 -0.9,-3.1 -2.2,-3.9 z m -5.1,-2.6 c -1.9,0 -3.4,-1.5 -3.4,-3.3 0,-1.8 1.9,-3.5 3.1,-2.1 1.3,1.6 3.6,0.2 3.6,2.1 0,1.9 -1.5,3.3 -3.3,3.3 z" /><g
   id="g10"
   transform="translate(0,-5.3000001)">
		<path
   style="fill:#58595b"
   inkscape:connector-curvature="0"
   id="path12"
   d="m -73.9,-86.6 c -2.6,0 -4.8,2.1 -4.8,4.8 0,2.7 2.1,4.8 4.8,4.8 2.7,0 4.8,-2.1 4.8,-4.8 0,-2.7 -2.2,-4.8 -4.8,-4.8 l 0,0 z" />
		<path
   style="fill:#58595b"
   inkscape:connector-curvature="0"
   id="path14"
   d="m -71,-76.1 h -5.9 c -2.8,0 -5,2.2 -5,5 v 7.7 H -66 v -7.7 c 0,-2.7 -2.2,-5 -5,-5 l 0,0 z" />
	</g><g
   id="g16"
   transform="translate(0,-5.3000001)">
		<path
   style="fill:#58595b"
   inkscape:connector-curvature="0"
   id="path18"
   d="m 60.1,-75.9 c 2,0 3.6,-1.6 3.6,-3.6 0,-2 -1.6,-3.6 -3.6,-3.6 -2,0 -3.6,1.6 -3.6,3.6 0.1,2 1.7,3.6 3.6,3.6 z m 0,-6.1 c 1.4,0 2.5,1.1 2.5,2.5 0,1.4 -1.1,2.5 -2.5,2.5 -1.4,0 -2.5,-1.1 -2.5,-2.5 0,-1.4 1.2,-2.5 2.5,-2.5 z" />
		<path
   style="fill:#58595b"
   inkscape:connector-curvature="0"
   id="path20"
   d="M 62.4,-74.9 H 58 c -2.1,0 -3.8,1.7 -3.8,3.8 v 5.8 h 11.9 v -5.8 c 0,-2.1 -1.7,-3.8 -3.7,-3.8 z m 2.7,8.5 h -9.8 v -4.7 c 0,-1.5 1.2,-2.7 2.7,-2.7 h 4.4 c 1.5,0 2.7,1.2 2.7,2.7 v 4.7 z" />
		<path
   style="fill:#58595b"
   inkscape:connector-curvature="0"
   id="path22"
   d="m 68.6,-77.4 c 2,0 3.6,-1.6 3.6,-3.6 0,-2 -1.6,-3.6 -3.6,-3.6 -2,0 -3.6,1.6 -3.6,3.6 0,2 1.6,3.6 3.6,3.6 z" />
		<path
   style="fill:#58595b"
   inkscape:connector-curvature="0"
   id="path24"
   d="m 70.8,-76.7 h -4.4 c -1,0 -1.8,0.4 -2.5,0.9 1.9,0.6 3.3,2.4 3.3,4.6 v 5.8 h 7.4 V -73 c 0,-2 -1.7,-3.7 -3.8,-3.7 z" />
		<path
   style="fill:#58595b"
   inkscape:connector-curvature="0"
   id="path26"
   d="m 51.7,-77.4 c 2,0 3.6,-1.6 3.6,-3.6 0,-2 -1.6,-3.6 -3.6,-3.6 -2,0 -3.6,1.6 -3.6,3.6 0,2 1.6,3.6 3.6,3.6 z" />
		<path
   style="fill:#58595b"
   inkscape:connector-curvature="0"
   id="path28"
   d="m 56.4,-75.7 c -0.7,-0.6 -1.5,-0.9 -2.5,-0.9 h -4.4 c -2.1,0 -3.7,1.7 -3.7,3.7 v 7.6 h 7.4 v -5.8 c -0.1,-2.2 1.3,-4 3.2,-4.6 z" />
	</g><g
   id="g30"
   transform="translate(0,-5.3000001)">
		<path
   style="fill:#58595b"
   inkscape:connector-curvature="0"
   id="path32"
   d="m 9.5,-75.8 c 2.4,0 4.4,-2 4.4,-4.4 0,-2.4 -2,-4.4 -4.4,-4.4 -2.4,0 -4.4,2 -4.4,4.4 0,2.4 2,4.4 4.4,4.4 z" />
		<path
   style="fill:#58595b"
   inkscape:connector-curvature="0"
   id="path34"
   d="M 12.3,-74.9 H 6.8 c -2.6,0 -4.6,2.1 -4.6,4.6 v 7.2 h 14.7 v -7.2 c 0,-2.5 -2.1,-4.6 -4.6,-4.6 z" />
	</g><g
   id="g96"
   transform="matrix(0.90225566,0,0,0.90225566,-1.9849625,-1.1315795)"
   style="fill:#000000">
		<path
   style="fill:#000000"
   inkscape:connector-curvature="0"
   id="path98"
   d="m 23.4,15 1,-0.3 c -0.6,-2 -1.9,-3.8 -3.6,-5 l -0.6,0.9 c 1.6,1.1 2.7,2.7 3.2,4.4 z" />
		<path
   style="fill:#000000"
   inkscape:connector-curvature="0"
   id="path100"
   d="m 6.6,14.8 1,0.3 c 0.5,-1.7 1.6,-3.3 3.1,-4.3 L 10,9.9 c -1.6,1.2 -2.9,2.9 -3.4,4.9 z" />
		<path
   style="fill:#000000"
   inkscape:connector-curvature="0"
   id="path102"
   d="m 11.6,25.3 -0.5,0.9 c 1.3,0.7 2.9,1.1 4.4,1.1 1.5,0 3,-0.4 4.3,-1.1 l -0.5,-0.9 c -2.3,1.3 -5.4,1.2 -7.7,0 z" />
		<path
   style="fill:#000000"
   inkscape:connector-curvature="0"
   id="path104"
   d="m 6.2,20.7 c 1.3,0 2.4,-1.1 2.4,-2.4 0,-1.3 -1.1,-2.4 -2.4,-2.4 -1.3,0 -2.4,1.1 -2.4,2.4 0,1.3 1.1,2.4 2.4,2.4 z" />
		<path
   style="fill:#000000"
   inkscape:connector-curvature="0"
   id="path106"
   d="m 7.7,21.2 h -3 c -1.4,0 -2.5,1.1 -2.5,2.5 v 2.9 h 8.1 v -2.9 c 0,-1.3 -1.2,-2.5 -2.6,-2.5 z" />
		<path
   style="fill:#000000"
   inkscape:connector-curvature="0"
   id="path108"
   d="m 22.3,18.3 c 0,1.3 1.1,2.4 2.4,2.4 1.3,0 2.4,-1.1 2.4,-2.4 0,-1.3 -1.1,-2.4 -2.4,-2.4 -1.4,0 -2.4,1 -2.4,2.4 z" />
		<path
   style="fill:#000000"
   inkscape:connector-curvature="0"
   id="path110"
   d="m 26.2,21.2 h -3 c -1.4,0 -2.5,1.1 -2.5,2.5 v 2.9 h 8.1 v -2.9 c -0.1,-1.3 -1.2,-2.5 -2.6,-2.5 z" />
		<path
   style="fill:#000000"
   inkscape:connector-curvature="0"
   id="path112"
   d="m 15.5,6.9 c 1.3,0 2.4,-1.1 2.4,-2.4 0,-1.3 -1.1,-2.4 -2.4,-2.4 -1.3,0 -2.4,1.1 -2.4,2.4 -0.1,1.3 1,2.4 2.4,2.4 z" />
		<path
   style="fill:#000000"
   inkscape:connector-curvature="0"
   id="path114"
   d="M 19.5,10 C 19.5,8.6 18.4,7.5 17,7.5 h -3 c -1.4,0 -2.5,1.1 -2.5,2.5 v 2.9 h 8.1 V 10 z" />
	</g><g
   id="g162"
   transform="translate(0,-5.3000001)">
		<path
   style="fill:#58595b"
   inkscape:connector-curvature="0"
   id="path164"
   d="m -21.3,-72.3 c -0.3,-1.3 -1.1,-2.3 -2.1,-3 l -1,-6.8 c -0.1,-2.9 -2.8,-5 -5.7,-4.5 -2.1,0.4 -3.7,2.3 -3.8,4.5 -0.4,3.3 -0.2,1.8 -0.9,6.7 -0.5,0.3 -1,0.8 -1.3,1.3 -0.6,0.8 -1,1.9 -1,3 v 7.7 h 15.9 V -71 c 0,-0.5 0,-0.9 -0.1,-1.3 z m -7.8,-6.1 c -1.9,0 -3.5,-1.6 -3.5,-3.5 0,-1 0.4,-1.8 1,-2.5 0.7,-0.5 1.5,-0.6 2.1,0.2 1.1,1.5 3,0.7 3.7,1.4 0.1,0.3 0.1,0.5 0.1,0.8 0.1,2.1 -1.5,3.6 -3.4,3.6 z" />
	</g>
</svg>