<?xml version="1.0" encoding="UTF-8" standalone="no"?>
<!-- Generator: Adobe Illustrator 19.1.0, SVG Export Plug-In . SVG Version: 6.00 Build 0)  -->

<svg
   xmlns:dc="http://purl.org/dc/elements/1.1/"
   xmlns:cc="http://creativecommons.org/ns#"
   xmlns:rdf="http://www.w3.org/1999/02/22-rdf-syntax-ns#"
   xmlns:svg="http://www.w3.org/2000/svg"
   xmlns="http://www.w3.org/2000/svg"
   xmlns:sodipodi="http://sodipodi.sourceforge.net/DTD/sodipodi-0.dtd"
   xmlns:inkscape="http://www.inkscape.org/namespaces/inkscape"
   version="1.1"
   id="Layer_1"
   x="0px"
   y="0px"
   viewBox="0 0 24 24"
   xml:space="preserve"
   inkscape:version="0.48.5 r10040"
   width="100%"
   height="100%"
   sodipodi:docname="ThinkstockPhotos-491773850 [Converted].svg"><metadata
   id="metadata75"><rdf:RDF><cc:Work
       rdf:about=""><dc:format>image/svg+xml</dc:format><dc:type
         rdf:resource="http://purl.org/dc/dcmitype/StillImage" /><dc:title></dc:title></cc:Work></rdf:RDF></metadata><defs
   id="defs73">
	
	
	
</defs><sodipodi:namedview
   pagecolor="#ffffff"
   bordercolor="#666666"
   borderopacity="1"
   objecttolerance="10"
   gridtolerance="10"
   guidetolerance="10"
   inkscape:pageopacity="0"
   inkscape:pageshadow="2"
   inkscape:window-width="1920"
   inkscape:window-height="1005"
   id="namedview71"
   showgrid="false"
   inkscape:zoom="4.72"
   inkscape:cx="-19.368466"
   inkscape:cy="13.541521"
   inkscape:window-x="-9"
   inkscape:window-y="-9"
   inkscape:window-maximized="1"
   inkscape:current-layer="Layer_1" />
<style
   type="text/css"
   id="style3">
	.st0{fill:#231F20;}
	.st1{fill:#221F1F;}
</style>











<path
   style="fill:#231f20"
   inkscape:connector-curvature="0"
   d="M 23.414187,1.30091 H 3.6613274 c -0.3112128,0 -0.5675058,0.2563 -0.5675058,0.56751 v 10.61785 c -1.1716247,0.47597 -1.9954234,1.62929 -1.9954234,2.96567 0,1.15332 0.6041191,2.14188 1.5011443,2.70939 C 1.0617849,18.82037 0,20.33982 0,22.11556 V 22.5 h 8.6224254 v -0.38444 c 0,-0.31121 -0.03661,-0.60412 -0.09153,-0.89702 0.988559,-0.51259 1.7757436,-1.17163 2.3981696,-1.84897 h 12.503432 c 0.311213,0 0.567506,-0.2563 0.567506,-0.56751 V 1.86842 C 23.981693,1.55721 23.725403,1.30091 23.41419,1.30091 z M 22.846681,18.23455 H 11.771167 c 0.842105,-1.33638 1.135011,-2.50801 1.171625,-2.61785 0.146453,-0.65903 -0.128147,-1.29977 -0.640733,-1.6659 l 0.787186,-3.33181 c 0.07323,-0.31121 -0.128147,-0.62242 -0.439359,-0.69565 -0.311213,-0.0732 -0.622426,0.12815 -0.695653,0.43936 l -0.787185,3.33181 c -0.622426,0.0915 -1.153318,0.5492 -1.3180776,1.20824 0,0.0366 -0.530892,2.16018 -2.508009,3.3318 H 6.1510299 c -0.05492,-0.0183 -0.091533,-0.0549 -0.146453,-0.0732 0.8970251,-0.56751 1.5011445,-1.57437 1.5011445,-2.70939 0,-1.77574 -1.4462246,-3.20366 -3.2036617,-3.20366 -0.018307,0 -0.05492,0 -0.073227,0 V 2.43595 H 22.846681 v 15.79862 z"
   class="st0"
   id="XMLID_79_" /><path
   style="fill:#231f20"
   inkscape:connector-curvature="0"
   d="M 6.7368423,5.16362 H 21.016018 c 0.311213,0 0.567506,-0.2563 0.567506,-0.56751 0,-0.31121 -0.256293,-0.56751 -0.567506,-0.56751 H 6.7368423 c -0.3112128,0 -0.5675057,0.2563 -0.5675057,0.56751 0,0.31121 0.2562929,0.56751 0.5675057,0.56751 z"
   class="st0"
   id="XMLID_85_" /><path
   style="fill:#231f20"
   inkscape:connector-curvature="0"
   d="M 6.7368423,8.34897 H 21.016018 c 0.311213,0 0.567506,-0.25629 0.567506,-0.56751 0,-0.31121 -0.256293,-0.5675 -0.567506,-0.5675 H 6.7368423 c -0.3112128,0 -0.5675057,0.25629 -0.5675057,0.5675 0,0.31122 0.2562929,0.56751 0.5675057,0.56751 z"
   class="st0"
   id="XMLID_88_" />




</svg>