<?xml version="1.0" encoding="UTF-8" standalone="no"?>
<!-- Generator: Adobe Illustrator 18.1.0, SVG Export Plug-In . SVG Version: 6.00 Build 0)  -->

<svg
   xmlns:dc="http://purl.org/dc/elements/1.1/"
   xmlns:cc="http://creativecommons.org/ns#"
   xmlns:rdf="http://www.w3.org/1999/02/22-rdf-syntax-ns#"
   xmlns:svg="http://www.w3.org/2000/svg"
   xmlns="http://www.w3.org/2000/svg"
   xmlns:sodipodi="http://sodipodi.sourceforge.net/DTD/sodipodi-0.dtd"
   xmlns:inkscape="http://www.inkscape.org/namespaces/inkscape"
   version="1.1"
   id="Layer_2"
   x="0px"
   y="0px"
   viewBox="0 0 24 24"
   enable-background="new 0 0 72 72"
   xml:space="preserve"
   inkscape:version="0.48.4 r9939"
   width="100%"
   height="100%"
   sodipodi:docname="icon.svg"><metadata
   id="metadata31"><rdf:RDF><cc:Work
       rdf:about=""><dc:format>image/svg+xml</dc:format><dc:type
         rdf:resource="http://purl.org/dc/dcmitype/StillImage" /><dc:title /></cc:Work></rdf:RDF></metadata><defs
   id="defs29">
	
	
	
	
	
	
	
	
	
	
</defs><sodipodi:namedview
   pagecolor="#ffffff"
   bordercolor="#666666"
   borderopacity="1"
   objecttolerance="10"
   gridtolerance="10"
   guidetolerance="10"
   inkscape:pageopacity="0"
   inkscape:pageshadow="2"
   inkscape:window-width="1366"
   inkscape:window-height="706"
   id="namedview27"
   showgrid="false"
   inkscape:zoom="18.541911"
   inkscape:cx="6.4369828"
   inkscape:cy="10.504546"
   inkscape:window-x="-8"
   inkscape:window-y="-8"
   inkscape:window-maximized="1"
   inkscape:current-layer="Layer_2" />

<g
   id="g2992"><path
     d="m 14.458029,1.000001 c -0.04925,2.8063372 -0.09849,5.5811412 -0.147724,8.3874775 0,0.1576594 -0.270826,0.2837875 -0.566273,0.5991054 0,-2.333358 -0.04925,-4.4144618 0.02461,-6.4955645 0.02461,-1.1036159 -0.147725,-1.6081255 -1.157169,-1.5765942 -2.954473,0.063068 -5.8843247,0.063068 -8.8141772,0 -0.8124801,0 -1.0833067,0.2837876 -1.0833067,1.3558712 0.024621,5.6126725 0.024621,11.2253446 0,16.8380186 0,1.072084 0.2708266,1.35587 1.0833067,1.35587 2.9298525,-0.06306 5.8843248,-0.06306 8.8141772,0 0.861721,0.03153 1.231031,-0.252255 1.157169,-1.418935 -0.07386,-1.009019 -0.04925,-2.018039 0,-2.995527 0.02461,-0.472978 0.221585,-0.914424 0.615515,-1.292806 v 6.621692 H 2.000002 c 0.3200679,0.0946 0.6155151,0.283787 0.9355831,0.283787 4.7763976,0.03153 9.5527959,0 14.3538139,0 V 1.000001 h -2.83137 z M 10.764938,4.3108478 H 5.545369 c 0.6893775,-0.9144242 4.210124,-1.0405514 5.219569,0 z M 4.2158565,6.2342921 h 7.8047325 c 0,0.094598 0,0.1576594 0,0.2522543 H 4.2158565 c 0,-0.063068 0,-0.1576594 0,-0.2522543 z M 11.872865,8.2208 H 4.314339 c 0,-0.063068 0.024621,-0.1576594 0.024621,-0.220723 h 7.5339053 l 0,0.220723 z M 4.2897184,9.7658609 h 7.6323886 c 0,0.063068 0,0.1261281 0,0.1891917 H 4.2897184 c 0,-0.063068 0,-0.1261272 0,-0.1891917 z m 0,1.7657851 h 7.6323886 c 0,0.06307 0,0.157659 0,0.220723 H 4.3389596 c -0.024621,-0.0946 -0.024621,-0.15766 -0.04924,-0.220723 z m 6.2782536,5.423482 c 0.147725,-0.882892 0.246207,-1.608126 0.418552,-2.554081 0.541653,0.725232 0.960203,1.261274 1.526477,2.018039 -0.763239,0.220723 -1.280272,0.378382 -1.945029,0.536042 z m 2.092753,-1.355871 c -0.221587,-0.378382 -0.615516,-1.00902 -0.935584,-1.545062 0.910963,-1.135147 1.99427,-2.491017 3.20068,-3.973015 0.270826,0.441446 0.640135,1.040552 0.960203,1.545062 -1.009444,1.19821 -2.092752,2.554081 -3.225299,3.973015 z m 3.64385,-4.225271 c -0.443171,-0.662169 -0.837101,-1.19821 -1.452617,-2.0811024 0.467792,-0.031529 0.984825,-0.220724 1.083308,-0.031529 0.295447,0.5360418 1.501856,0.8513604 0.369309,2.1126344 z"
     id="path5"
     inkscape:connector-curvature="0"
     style="fill:#ffffff" /><path
     d="m 18.193311,1.000001 c -0.06401,2.848231 -0.128011,5.664458 -0.192016,8.512688 0,0.160013 -0.352028,0.288024 -0.736059,0.608049 0,-2.368191 -0.06401,-4.480362 0.032,-6.592532 0.032,-1.120091 -0.192015,-1.632132 -1.504121,-1.60013 -3.840311,0.06401 -7.648618,0.06401 -11.4569262,0 -1.0560854,0 -1.4081138,0.288024 -1.4081138,1.376112 0.032003,5.69646 0.032003,11.39292 0,17.089381 0,1.088088 0.3520284,1.376111 1.4081138,1.376111 3.8083082,-0.064 7.6486182,-0.064 11.4569262,0 1.12009,0.032 1.600129,-0.256021 1.504121,-1.440117 -0.09601,-1.024082 -0.06401,-2.048165 0,-3.040245 0.032,-0.480039 0.288023,-0.928075 0.800065,-1.312106 0,2.144173 0,4.288346 0,6.720543 -5.344432,0 -10.720867,0 -16.097301,0 0,-7.200582 0,-14.401164 0,-21.697754 5.376434,0 10.784872,0 16.193309,0 z"
     id="path7"
     inkscape:connector-curvature="0" /><path
     style="fill:#ac151e;fill-opacity:1"
     d="m 18.769357,10.216746 c 0.352029,0.448036 0.832067,1.056086 1.248101,1.568127 -1.280103,1.216098 -2.688217,2.592209 -4.160336,4.032326 -0.288024,-0.384031 -0.800065,-1.024083 -1.216099,-1.568127 1.184096,-1.184096 2.560207,-2.528204 4.128334,-4.032326 z"
     id="path9"
     inkscape:connector-curvature="0" /><path
     d="m 13.392923,4.360273 c -2.208179,0 -4.416357,0 -6.784549,0 0.896073,-0.928075 5.472443,-1.056085 6.784549,0 z"
     id="path11"
     inkscape:connector-curvature="0" /><path
     d="m 4.8802347,6.312431 c 3.3922743,0 6.7525453,0 10.1448203,0 0,0.09601 0,0.160013 0,0.25602 -3.392275,0 -6.752546,0 -10.1448203,0 0,-0.06401 0,-0.160013 0,-0.25602 z"
     id="path13"
     inkscape:connector-curvature="0" /><path
     style="fill:#ac151e;fill-opacity:1"
     d="M 20.305481,11.208826 19.217393,9.992728 c -0.224018,-0.224018 -0.064,-0.608049 0.256021,-0.672054 0.320026,-0.032 0.576047,-0.06401 0.640052,0.06401 0.352028,0.512041 1.664134,0.800065 0.800064,1.824147 -0.160013,0.160013 -0.416033,0.192016 -0.608049,0 z"
     id="path15"
     inkscape:connector-curvature="0" /><path
     style="fill:#ac151e;fill-opacity:1"
     d="m 15.665106,16.649266 c -0.99208,0.224018 -1.664134,0.352028 -2.528204,0.544044 0.192015,-0.896072 0.320026,-1.632132 0.544044,-2.592209 0.704057,0.736059 1.248101,1.280103 1.98416,2.048165 z"
     id="path17"
     inkscape:connector-curvature="0" /><path
     d="m 5.0402477,8.104576 c 3.2642633,0 6.5285273,0 9.7927913,0 0,0.06401 0,0.160012 0,0.224018 -3.296266,0 -6.56053,0 -9.8567965,0 0.032003,-0.09601 0.032003,-0.160013 0.064005,-0.224018 z"
     id="path19"
     inkscape:connector-curvature="0" /><path
     d="m 4.9762425,9.89672 c 3.2962665,0 6.6245355,0 9.9208015,0 0,0.06401 0,0.128011 0,0.192016 -3.296266,0 -6.624535,0 -9.9208015,0 0,-0.06401 0,-0.12801 0,-0.192016 z"
     id="path21"
     inkscape:connector-curvature="0" /><path
     d="m 4.9762425,11.688865 c 3.2962665,0 6.5925325,0 9.9208015,0 0,0.06401 0,0.160013 0,0.224018 -3.296266,0 -6.592533,0 -9.8887989,0 0,-0.09601 0,-0.160013 -0.032003,-0.224018 z"
     id="path23"
     inkscape:connector-curvature="0" /><path
     inkscape:connector-curvature="0"
     style="fill:none;stroke:#000000;stroke-width:0.18433489;stroke-miterlimit:10;stroke-opacity:1;stroke-dasharray:none"
     id="path25"
     d="m 6.896398,18.153388 c 0.704057,-0.320026 1.248101,-1.056086 1.344108,-1.824148 0,0.73606 0.160013,1.440117 0.480039,2.112171 0.288023,-0.320026 0.544044,-0.640052 0.832067,-0.928075 0.064,0.064 0.128011,0.12801 0.192016,0.224018 0.448036,0 0.896072,0 1.344108,-0.032 0.256021,0 0.60805,-0.09601 0.60805,-0.352028 -0.032,-0.224018 -0.352029,-0.288023 -0.512042,-0.160013 -0.160013,0.12801 -0.224018,0.384031 -0.224018,0.608049 0,0.224018 0,0.448036 -0.09601,0.672054 -0.160013,0.320026 -0.576046,0.448037 -0.928075,0.352029 0.192016,-0.352029 0.608049,-0.512041 0.992081,-0.576047 0.384031,-0.064 0.800064,-0.032 1.184095,-0.12801 0.384031,-0.09601 0.768062,-0.352028 0.86407,-0.736059"
     stroke-miterlimit="10" /></g>
</svg>