<?xml version="1.0" encoding="UTF-8" standalone="no"?>
<!-- Generator: Adobe Illustrator 18.1.0, SVG Export Plug-In . SVG Version: 6.00 Build 0)  -->

<svg
   xmlns:dc="http://purl.org/dc/elements/1.1/"
   xmlns:cc="http://creativecommons.org/ns#"
   xmlns:rdf="http://www.w3.org/1999/02/22-rdf-syntax-ns#"
   xmlns:svg="http://www.w3.org/2000/svg"
   xmlns="http://www.w3.org/2000/svg"
   xmlns:sodipodi="http://sodipodi.sourceforge.net/DTD/sodipodi-0.dtd"
   xmlns:inkscape="http://www.inkscape.org/namespaces/inkscape"
   version="1.1"
   id="Layer_1"
   x="0px"
   y="0px"
   viewBox="0 0 24 24"
   enable-background="new 0 0 72 72"
   xml:space="preserve"
   inkscape:version="0.48.4 r9939"
   width="100%"
   height="100%"
   sodipodi:docname="lesson.svg"><metadata
   id="metadata23"><rdf:RDF><cc:Work
       rdf:about=""><dc:format>image/svg+xml</dc:format><dc:type
         rdf:resource="http://purl.org/dc/dcmitype/StillImage" /><dc:title></dc:title></cc:Work></rdf:RDF></metadata><defs
   id="defs21" /><sodipodi:namedview
   pagecolor="#ffffff"
   bordercolor="#666666"
   borderopacity="1"
   objecttolerance="10"
   gridtolerance="10"
   guidetolerance="10"
   inkscape:pageopacity="0"
   inkscape:pageshadow="2"
   inkscape:window-width="803"
   inkscape:window-height="480"
   id="namedview19"
   showgrid="false"
   inkscape:zoom="8"
   inkscape:cx="23.615237"
   inkscape:cy="15.356561"
   inkscape:window-x="0"
   inkscape:window-y="0"
   inkscape:window-maximized="0"
   inkscape:current-layer="Layer_1" />
<g
   id="g3"
   transform="matrix(0.32951246,0,0,0.32951246,0.1432676,-0.39223623)">
	<path
   d="m 69.3,21.5 0,-2.3 L 67,19.1 C 64,19 61.4,17.8 58.7,16.5 55.6,15 52.4,13.6 48.4,13.6 c -4.1,0 -8.1,1.6 -12.7,4.9 -4.3,-3.3 -8.4,-4.9 -12.5,-4.9 -4.2,0 -7.7,1.7 -10.8,3.1 C 9.9,17.9 7.5,19 5,19.1 l -2.4,0.1 0.1,2.4 C 3,26.2 2.8,48.5 2.7,58 l 0,4.7 2.4,0 c 5.8,0.1 9.6,-1.5 12.6,-2.7 2.2,-0.9 4,-1.7 6.2,-1.7 2.8,0 6.3,1.3 10.8,4.1 l 1.2,0.7 1.2,-0.7 c 4.6,-2.6 8.1,-3.9 11.1,-3.9 2.4,0 4.4,0.8 6.7,1.7 3,1.2 6.4,2.5 11.3,2.5 0,0 0,0 0,0 0.2,0 0.4,0 0.6,0 l 2.3,0 0.1,-2.2 c 0.3,-6.4 0.1,-37.7 0.1,-39 z M 16.9,54.7 c -2.3,0.9 -4.6,1.9 -7.9,2.2 0.1,-8.1 0.2,-25.6 0,-32.5 2.3,-0.5 4.4,-1.5 6.4,-2.4 2.8,-1.3 5.4,-2.5 8.3,-2.5 3.1,0 6.3,1.4 9.9,4.3 v 31.6 c -3.5,-1.8 -6.5,-2.6 -9.2,-2.6 -2.8,-0.1 -5.2,0.9 -7.5,1.9 z M 63,56.8 c -2.9,-0.3 -5.2,-1.1 -7.3,-2 -2.4,-0.9 -4.9,-1.9 -8,-1.9 -2.8,0 -5.9,0.8 -9.4,2.5 V 23.2 c 3.5,-2.6 6.6,-3.9 9.5,-3.9 2.8,0 5.2,1.2 7.9,2.4 2.3,1.1 4.6,2.2 7.4,2.7 -0.1,6.1 0.1,24.9 -0.1,32.4 z"
   id="path5"
   inkscape:connector-curvature="0" />
	<path
   d="m 13,31.5 c 0.1,0 0.1,0 0,0 2,-0.1 3.6,-0.9 5.2,-1.6 3.4,-1.6 6.3,-3 11.4,1.3 0.5,0.5 1.3,0.4 1.8,-0.1 0.5,-0.5 0.4,-1.3 -0.1,-1.8 C 25,23.9 20.7,26 17.2,27.6 c -1.5,0.7 -2.8,1.3 -4.3,1.4 -0.7,0 -1.2,0.6 -1.2,1.3 0.1,0.7 0.7,1.2 1.3,1.2 z"
   id="path7"
   inkscape:connector-curvature="0" />
	<path
   d="m 17.2,36.1 c -1.5,0.7 -2.8,1.3 -4.3,1.4 -0.7,0 -1.2,0.6 -1.2,1.3 0,0.7 0.6,1.2 1.3,1.2 0,0 0,0 0.1,0 1.9,-0.1 3.6,-0.9 5.2,-1.6 3.4,-1.6 6.3,-3 11.4,1.3 0.5,0.5 1.3,0.4 1.8,-0.1 C 32,39.1 31.9,38.3 31.4,37.8 25,32.5 20.7,34.5 17.2,36.1 z"
   id="path9"
   inkscape:connector-curvature="0" />
	<path
   d="m 17.2,44.7 c -1.5,0.7 -2.8,1.3 -4.3,1.4 -0.7,0 -1.2,0.6 -1.2,1.3 0,0.7 0.6,1.2 1.3,1.2 0,0 0,0 0.1,0 1.9,-0.1 3.6,-0.9 5.2,-1.6 3.4,-1.6 6.3,-3 11.4,1.3 0.5,0.5 1.3,0.4 1.8,-0.1 C 32,47.7 31.9,46.9 31.4,46.4 25,41.1 20.7,43.1 17.2,44.7 z"
   id="path11"
   inkscape:connector-curvature="0" />
	<path
   d="M 59.3,29 C 57.9,28.9 56.5,28.3 55.1,27.6 51.6,26 47.3,23.9 41,29.3 c -0.5,0.4 -0.6,1.2 -0.1,1.8 0.4,0.5 1.2,0.6 1.8,0.1 5.1,-4.3 8,-2.9 11.4,-1.3 1.6,0.8 3.3,1.5 5.2,1.6 0,0 0,0 0.1,0 0.7,0 1.2,-0.5 1.3,-1.2 C 60.6,29.6 60,29 59.3,29 z"
   id="path13"
   inkscape:connector-curvature="0" />
	<path
   d="m 59.3,37.5 c -1.4,-0.1 -2.8,-0.7 -4.2,-1.4 -3.5,-1.6 -7.8,-3.7 -14.1,1.7 -0.5,0.4 -0.6,1.2 -0.1,1.8 0.4,0.5 1.2,0.6 1.8,0.1 5.1,-4.3 8,-2.9 11.4,-1.3 1.6,0.8 3.3,1.5 5.2,1.6 0,0 0,0 0.1,0 0.7,0 1.2,-0.5 1.3,-1.2 -0.1,-0.6 -0.7,-1.2 -1.4,-1.3 z"
   id="path15"
   inkscape:connector-curvature="0" />
	<path
   d="M 59.3,46.1 C 57.9,46 56.5,45.4 55.1,44.7 51.6,43.1 47.3,41 41,46.4 c -0.5,0.5 -0.6,1.2 -0.1,1.8 0.4,0.5 1.2,0.6 1.8,0.1 5.1,-4.3 8,-2.9 11.4,-1.3 1.6,0.8 3.3,1.5 5.2,1.6 0,0 0,0 0.1,0 0.7,0 1.2,-0.5 1.3,-1.2 -0.1,-0.6 -0.7,-1.2 -1.4,-1.3 z"
   id="path17"
   inkscape:connector-curvature="0" />
</g>
</svg>